<svg width="16" height="16" viewBox="0 0 16 16" fill="none" xmlns="http://www.w3.org/2000/svg">
<g clip-path="url(#clip0_427_4265)">
<mask id="mask0_427_4265" style="mask-type:luminance" maskUnits="userSpaceOnUse" x="0" y="0" width="16" height="16">
<path d="M16 0H0V16H16V0Z" fill="white"/>
</mask>
<g mask="url(#mask0_427_4265)">
<path d="M13.7529 14.422L7.98412 15.9755L2.2152 14.422L0.883789 0H15.0845L13.7529 14.422Z" fill="#1C62AE"/>
<path d="M7.98438 1.16797V14.7364L7.99722 14.7399L12.666 13.4831L13.7433 1.16797H7.98438Z" fill="#399CD6"/>
<path d="M7.97951 4.77439L3.85059 6.49418L3.98743 8.19649L7.97951 6.4898L12.2262 4.67418L12.4022 2.93262L7.97951 4.77439Z" fill="white"/>
<path fill-rule="evenodd" clip-rule="evenodd" d="M3.85645 6.49414L3.99345 8.19663L10.1187 8.21591L9.9819 10.4861L7.96608 11.0535L6.02874 10.5647L5.91118 9.15559H4.1108L4.34575 11.8754L7.98575 12.9517L11.6061 11.8949L12.0759 6.49414H3.85645Z" fill="url(#paint0_linear_427_4265)"/>
<path d="M7.97952 8.20943L5.19215 8.20029L7.97952 8.20909V8.20943ZM3.99391 8.19646H3.98777L3.99358 8.19397L3.99391 8.19646Z" fill="#2E62A9"/>
<path fill-rule="evenodd" clip-rule="evenodd" d="M7.97905 8.20909L5.19168 8.20029L3.99345 8.19646L3.99312 8.19397V8.19381L3.85645 6.49414H7.97905V8.20909Z" fill="url(#paint1_linear_427_4265)"/>
<path d="M7.97902 12.9514H7.97886L4.33923 11.8753L4.10449 9.15527H4.11077L4.34572 11.8751L7.97902 12.9495V12.9514ZM7.96606 11.0531L7.96272 11.0523L7.97902 11.0477V11.0495L7.96606 11.0531Z" fill="#2E62A9"/>
<path fill-rule="evenodd" clip-rule="evenodd" d="M7.97958 12.9495L4.34627 11.8751L4.11133 9.15527H5.90522L6.02257 10.5642L7.96013 11.0531L7.96328 11.0523L7.96661 11.0531L7.97958 11.0495V12.9495Z" fill="url(#paint2_linear_427_4265)"/>
<path fill-rule="evenodd" clip-rule="evenodd" d="M3.47852 2.93262L3.69375 4.67418H12.226L12.402 2.93262H3.47852Z" fill="url(#paint3_linear_427_4265)"/>
<path d="M3.69392 4.67418H3.69376L3.47852 2.93262L3.69392 4.67418Z" fill="#2E62A9"/>
<path fill-rule="evenodd" clip-rule="evenodd" d="M7.97918 4.67418H3.69375L3.47852 2.93262H7.97918V4.67418Z" fill="url(#paint4_linear_427_4265)"/>
</g>
</g>
<defs>
<linearGradient id="paint0_linear_427_4265" x1="3.85642" y1="9.72288" x2="12.0759" y2="9.72288" gradientUnits="userSpaceOnUse">
<stop stop-color="#E8E7E6"/>
<stop offset="1" stop-color="white"/>
</linearGradient>
<linearGradient id="paint1_linear_427_4265" x1="3.85642" y1="9.72288" x2="12.0759" y2="9.72288" gradientUnits="userSpaceOnUse">
<stop stop-color="#DDDEDD"/>
<stop offset="1" stop-color="#F1F2F2"/>
</linearGradient>
<linearGradient id="paint2_linear_427_4265" x1="3.85695" y1="9.72256" x2="12.0764" y2="9.72256" gradientUnits="userSpaceOnUse">
<stop stop-color="#DDDEDD"/>
<stop offset="1" stop-color="#F1F2F2"/>
</linearGradient>
<linearGradient id="paint3_linear_427_4265" x1="3.47843" y1="3.80328" x2="12.402" y2="3.80328" gradientUnits="userSpaceOnUse">
<stop stop-color="#E8E7E6"/>
<stop offset="1" stop-color="white"/>
</linearGradient>
<linearGradient id="paint4_linear_427_4265" x1="3.47843" y1="3.80328" x2="12.402" y2="3.80328" gradientUnits="userSpaceOnUse">
<stop stop-color="#DDDEDD"/>
<stop offset="1" stop-color="#F1F2F2"/>
</linearGradient>
<clipPath id="clip0_427_4265">
<rect width="16" height="16" fill="white"/>
</clipPath>
</defs>
</svg>
