<svg width="16" height="16" viewBox="0 0 16 16" fill="none" xmlns="http://www.w3.org/2000/svg">
<g clip-path="url(#clip0_427_4266)">
<path d="M0 0H16V16H0V0Z" fill="#F7DF1E"/>
<path d="M4.20706 13.3709L5.43149 12.6299C5.6677 13.0487 5.88259 13.4031 6.39802 13.4031C6.89209 13.4031 7.20358 13.2098 7.20358 12.4581V7.3457H8.70717V12.4793C8.70717 14.0367 7.79431 14.7455 6.46247 14.7455C5.25965 14.7455 4.56144 14.1226 4.20703 13.3708" fill="black"/>
<path d="M9.52344 13.2098L10.7477 12.501C11.07 13.0273 11.4889 13.4139 12.2299 13.4139C12.8529 13.4139 13.2502 13.1024 13.2502 12.6728C13.2502 12.1573 12.8421 11.9747 12.1547 11.6741L11.7789 11.5128C10.6941 11.0511 9.97446 10.4711 9.97446 9.24674C9.97446 8.11902 10.8337 7.25977 12.1762 7.25977C13.1321 7.25977 13.8195 7.59274 14.3135 8.46271L13.1428 9.21448C12.885 8.75269 12.6059 8.57014 12.1763 8.57014C11.7359 8.57014 11.4566 8.84938 11.4566 9.21448C11.4566 9.66558 11.7359 9.84821 12.3802 10.1275L12.7561 10.2886C14.0342 10.8363 14.7538 11.3948 14.7538 12.6513C14.7538 14.0047 13.6906 14.7457 12.2622 14.7457C10.8659 14.7457 9.96372 14.0798 9.52344 13.2098Z" fill="black"/>
</g>
<defs>
<clipPath id="clip0_427_4266">
<rect width="16" height="16" fill="white"/>
</clipPath>
</defs>
</svg>
