<svg width="16" height="16" viewBox="0 0 16 16" fill="none" xmlns="http://www.w3.org/2000/svg">
<path d="M0 8V16H8H16V8V0H8H0V8Z" fill="#007ACC"/>
<path d="M3.53788 8.05328L3.5328 8.70852H4.57407H5.61534V11.6672V14.626H6.35185H7.08836V11.6672V8.70852H8.12963H9.1709V8.06598C9.1709 7.71042 9.16328 7.41328 9.15312 7.40566C9.1455 7.3955 7.8782 7.39042 6.34169 7.39296L3.5455 7.40058L3.53788 8.05328Z" fill="white"/>
<path d="M12.91 7.38191C13.3164 7.4835 13.6262 7.66382 13.9106 7.95842C14.0579 8.11588 14.2764 8.40287 14.2941 8.47144C14.2992 8.49175 13.6033 8.95906 13.1817 9.22064C13.1665 9.2308 13.1056 9.16477 13.037 9.06318C12.8313 8.7635 12.6154 8.63398 12.2852 8.61112C11.8002 8.5781 11.4878 8.83207 11.4903 9.2562C11.4903 9.38064 11.5081 9.45429 11.5589 9.55588C11.6656 9.77683 11.8637 9.9089 12.4859 10.1781C13.6313 10.6708 14.1214 10.9959 14.4262 11.4581C14.7665 11.9737 14.8427 12.7965 14.6116 13.4086C14.3576 14.074 13.7278 14.526 12.8414 14.6759C12.5671 14.7241 11.917 14.7165 11.6224 14.6632C10.9798 14.5489 10.3703 14.2314 9.99445 13.8149C9.84714 13.6524 9.56016 13.2283 9.57794 13.1978C9.58556 13.1876 9.65159 13.147 9.72524 13.1038C9.79635 13.0632 10.0656 12.9083 10.3195 12.761L10.7792 12.4943L10.8757 12.6365C11.0103 12.8422 11.3049 13.1241 11.4827 13.2181C11.9932 13.4873 12.6941 13.4492 13.0395 13.1394C13.1868 13.0048 13.2478 12.8651 13.2478 12.6594C13.2478 12.474 13.2249 12.3927 13.1284 12.253C13.004 12.0752 12.75 11.9254 12.0287 11.613C11.2033 11.2575 10.8478 11.0365 10.5227 10.686C10.3348 10.4829 10.157 10.1578 10.0833 9.88604C10.0224 9.66001 10.0071 9.09366 10.0554 8.86509C10.2256 8.06763 10.8275 7.51144 11.696 7.34636C11.9779 7.29302 12.6332 7.31334 12.91 7.38191Z" fill="white"/>
</svg>
